<svg width="43" height="43" viewBox="0 0 43 43" fill="none" xmlns="http://www.w3.org/2000/svg">
<path d="M21.4261 0C9.5899 0 0 9.5899 0 21.4261C0 33.2623 9.5899 42.8522 21.4261 42.8522C33.2623 42.8522 42.8522 33.2623 42.8522 21.4261C42.8522 9.5899 33.2623 0 21.4261 0ZM29.4168 27.0418L27.6889 29.2017C27.5755 29.3435 27.4353 29.4615 27.2763 29.5491C27.1173 29.6367 26.9425 29.6921 26.7621 29.7121C26.5817 29.7322 26.3991 29.7165 26.2247 29.666C26.0503 29.6154 25.8876 29.5311 25.7459 29.4177L19.9574 25.1221C19.5529 24.7983 19.2264 24.3876 19.0021 23.9206C18.7778 23.4536 18.6614 22.9421 18.6614 22.424V8.98513C18.6614 8.61852 18.8071 8.26692 19.0663 8.00768C19.3255 7.74844 19.6771 7.6028 20.0438 7.6028H22.8084C23.175 7.6028 23.5266 7.74844 23.7859 8.00768C24.0451 8.26692 24.1907 8.61852 24.1907 8.98513V21.4261L29.2017 25.0979C29.3435 25.2114 29.4616 25.3517 29.5492 25.5108C29.6367 25.6699 29.6921 25.8447 29.7121 26.0253C29.7321 26.2058 29.7163 26.3885 29.6656 26.5629C29.6149 26.7373 29.5304 26.9001 29.4168 27.0418Z" fill="#FF9D02"/>
</svg>
