<svg width="43" height="40" viewBox="0 0 43 40" fill="none" xmlns="http://www.w3.org/2000/svg">
<path d="M41.5934 21.2565C42.3969 22.0599 42.8522 23.1491 42.8522 24.2829C42.8522 25.4167 42.3969 26.5059 41.5934 27.3093C40.7899 28.1128 39.7008 28.5681 38.567 28.5681H4.28522C3.14874 28.5681 2.05869 28.1128 1.25521 27.3093C0.451733 26.5059 0 25.4167 0 24.2829C0 23.1491 0.451733 22.0599 1.25521 21.2565C2.05869 20.453 3.14874 19.9977 4.28522 19.9977H38.567C39.7008 19.9977 40.7899 20.453 41.5934 21.2565ZM41.0042 31.8445C41.272 32.1124 41.4238 32.4784 41.4238 32.8533V34.2817C41.4238 35.7191 40.8256 37.2546 39.7543 38.3259C38.683 39.3972 37.1475 39.9954 35.7101 39.9954H7.14203C5.62703 39.9954 4.17362 39.3972 3.10232 38.3259C2.03012 37.2546 1.42841 35.7191 1.42841 34.2817V32.8533C1.42841 32.4784 1.57928 32.1124 1.84711 31.8445C2.11493 31.5767 2.47828 31.4249 2.85681 31.4249H39.9954C40.3703 31.4249 40.7363 31.5767 41.0042 31.8445ZM3.07018 16.8552C2.67201 16.6588 2.32384 16.382 2.05066 16.0339C1.77747 15.6857 1.58821 15.2839 1.49536 14.8554C1.40252 14.418 1.41055 13.9716 1.51679 13.5431C3.47995 5.80468 11.6504 0 21.4261 0C31.2017 0 39.3704 5.80468 41.3345 13.5431C41.4416 13.9716 41.4506 14.418 41.3523 14.8554C41.2631 15.2839 41.0756 15.6857 40.7988 16.0339C40.4507 16.382 40.1828 16.6588 39.7811 16.8552C39.3883 17.0427 38.9508 17.1409 38.5045 17.1409H4.34503C3.90401 17.1409 3.46745 17.0427 3.07018 16.8552ZM31.8445 7.56162C31.5767 7.82945 31.4249 8.19548 31.4249 8.57044C31.4249 8.85612 31.5053 9.13287 31.666 9.36499C31.8267 9.5971 31.9695 9.78458 32.3088 9.89171C32.5677 9.91849 32.8533 10.0256 33.1301 9.97206C33.4068 9.91849 33.6657 9.78458 33.8621 9.57925C34.0675 9.38284 34.2014 9.12394 34.255 8.84719C34.3085 8.57044 34.2014 8.28475 34.1746 8.02586C34.0675 7.68661 33.88 7.54377 33.6479 7.38307C33.4158 7.22238 33.139 7.06168 32.8533 7.06168C32.4784 7.06168 32.1123 7.2938 31.8445 7.56162ZM20.4173 4.70392C20.1494 4.97175 19.9977 5.3351 19.9977 5.71362C19.9977 5.99573 20.078 6.27606 20.2387 6.50817C20.3994 6.74029 20.5423 6.92777 20.8815 7.0349C21.1404 7.06168 21.4261 7.16881 21.7028 7.11525C21.9796 7.06168 22.2385 6.92777 22.4349 6.72244C22.6402 6.52603 22.7741 6.26713 22.8277 5.99216C22.8813 5.71541 22.7741 5.42794 22.7474 5.16726C22.6402 4.90568 22.4528 4.68249 22.2206 4.52626C21.9885 4.36914 21.7118 4.20487 21.4261 4.20487C21.0511 4.20487 20.6851 4.43609 20.4173 4.70392ZM8.99003 7.56162C8.7222 7.82945 8.57043 8.19548 8.57043 8.57044C8.57043 8.85612 8.65078 9.13287 8.81148 9.36499C8.97217 9.5971 9.11501 9.78458 9.45426 9.89171C9.71316 9.91849 9.99884 10.0256 10.2756 9.97206C10.5523 9.91849 10.8112 9.78458 11.0077 9.57925C11.213 9.38284 11.3469 9.12394 11.4005 8.84719C11.454 8.57044 11.3469 8.28475 11.3201 8.02586C11.213 7.68661 11.0255 7.54377 10.7934 7.38307C10.5613 7.22238 10.2845 7.06168 9.99884 7.06168C9.62388 7.06168 9.25785 7.2938 8.99003 7.56162Z" fill="#FF9D02"/>
</svg>
