<svg width="43" height="31" viewBox="0 0 43 31" fill="none" xmlns="http://www.w3.org/2000/svg">
<path d="M37.0087 7.7372H31.1652V0H3.89565C1.7433 0 0 1.7312 0 3.8686V25.1459H3.89565C3.89565 28.3472 6.51548 30.9488 9.73913 30.9488C12.9628 30.9488 15.5826 28.3472 15.5826 25.1459H27.2696C27.2696 28.3472 29.8894 30.9488 33.113 30.9488C36.3367 30.9488 38.9565 28.3472 38.9565 25.1459H42.8522V15.4744L37.0087 7.7372ZM9.73913 28.0473C8.12243 28.0473 6.81739 26.7514 6.81739 25.1459C6.81739 23.5404 8.12243 22.2444 9.73913 22.2444C11.3558 22.2444 12.6609 23.5404 12.6609 25.1459C12.6609 26.7514 11.3558 28.0473 9.73913 28.0473ZM36.0348 10.6386L39.8623 15.4744H31.1652V10.6386H36.0348ZM33.113 28.0473C31.4963 28.0473 30.1913 26.7514 30.1913 25.1459C30.1913 23.5404 31.4963 22.2444 33.113 22.2444C34.7297 22.2444 36.0348 23.5404 36.0348 25.1459C36.0348 26.7514 34.7297 28.0473 33.113 28.0473Z" fill="#FF9D02"/>
</svg>
