<svg width="201" height="50" viewBox="0 0 201 50" fill="none" xmlns="http://www.w3.org/2000/svg">
<mask id="mask0_12001_12" style="mask-type:alpha" maskUnits="userSpaceOnUse" x="0" y="10" width="28" height="30">
<path d="M8.89415 36.3648C8.89415 38.366 7.27184 39.9883 5.27062 39.9883C3.2694 39.9883 1.64709 38.366 1.64709 36.3648C1.64709 34.3636 3.2694 32.7413 5.27062 32.7413C7.27184 32.7413 8.89415 34.3636 8.89415 36.3648Z" fill="#C4C4C4"/>
<path d="M26.3531 36.3648C26.3531 38.366 24.7308 39.9883 22.7296 39.9883C20.7284 39.9883 19.1061 38.366 19.1061 36.3648C19.1061 34.3636 20.7284 32.7413 22.7296 32.7413C24.7308 32.7413 26.3531 34.3636 26.3531 36.3648Z" fill="#C4C4C4"/>
<path fill-rule="evenodd" clip-rule="evenodd" d="M25.1913 33.7058C25.4382 33.9345 25.4094 34.3209 25.1508 34.5363C23.7802 35.6779 22.0174 36.3647 20.0941 36.3647H19.7649C19.401 36.3647 19.0998 36.0671 19.1652 35.7091C19.4737 34.0209 20.9522 32.7412 22.7296 32.7412C23.68 32.7412 24.545 33.1071 25.1913 33.7058ZM27.0987 32.1282C26.8986 32.5093 26.3844 32.543 26.0504 32.2717C25.144 31.5354 23.9883 31.0942 22.7296 31.0942C20.0414 31.0942 17.8233 33.1066 17.4996 35.7072C17.4547 36.0682 17.164 36.3647 16.8002 36.3647H11.2C10.8361 36.3647 10.5455 36.0682 10.5006 35.7072C10.1769 33.1066 7.95876 31.0942 5.27059 31.0942C4.0118 31.0942 2.85608 31.5354 1.94969 32.2718C1.61563 32.5431 1.10145 32.5094 0.901402 32.1283C0.325709 31.0317 0 29.7833 0 28.4588V26.8116C0 26.4478 0.294965 26.1528 0.658823 26.1528H27.3412C27.705 26.1528 28 26.4478 28 26.8116V28.4588C28 29.7832 27.6743 31.0316 27.0987 32.1282ZM28 23.8469C28 24.2108 27.705 24.5057 27.3412 24.5057H0.658824C0.294965 24.5057 0 24.2108 0 23.8469V19.894C0 19.5302 0.294965 19.2352 0.658823 19.2352H27.3412C27.705 19.2352 28 19.5302 28 19.894V23.8469ZM7.90588 10.0117C3.883 10.0117 0.561907 13.0164 0.0643695 16.904C0.0168356 17.2754 0.318678 17.5881 0.693122 17.5881H27.3069C27.6813 17.5881 27.9832 17.2754 27.9356 16.904C27.4381 13.0164 24.117 10.0117 20.0941 10.0117H7.90588ZM5.27059 32.7412C7.04795 32.7412 8.52644 34.0209 8.83496 35.7091C8.90037 36.0671 8.59914 36.3647 8.23528 36.3647H7.90588C5.98268 36.3647 4.21987 35.6779 2.84928 34.5364C2.59074 34.321 2.56193 33.9345 2.80878 33.7059C3.45509 33.1072 4.3201 32.7412 5.27059 32.7412Z" fill="#C4C4C4"/>
</mask>
<g mask="url(#mask0_12001_12)">
<rect x="-1.64709" y="7.70589" width="33.6" height="10.8706" fill="url(#paint0_linear_12001_12)"/>
<rect x="-1.64709" y="25.4941" width="33.6" height="16.4706" fill="#FFA833"/>
<rect x="-1.64709" y="18.5765" width="33.6" height="7.24706" rx="3.62353" fill="#F17228"/>
<rect x="-23.0587" y="32.7413" width="31.9529" height="7.24706" fill="#F58D00"/>
<rect x="19.1061" y="32.7413" width="31.9529" height="7.24706" fill="#F58D00"/>
<ellipse cx="8.11249" cy="12.8232" rx="1" ry="0.5" transform="rotate(-20.8548 8.11249 12.8232)" fill="white"/>
<ellipse cx="14" cy="12.5" rx="1" ry="0.5" fill="white"/>
<ellipse cx="19.1176" cy="12.9123" rx="1" ry="0.5" transform="rotate(28.1155 19.1176 12.9123)" fill="white"/>
</g>
<path d="M41.1094 8.14062H54.0469V9.66406C54.0469 10.625 53.7188 11.4219 53.0391 12.1016C52.3594 12.7812 51.5625 13.1094 50.6016 13.1094H46.0781V23.0703H52.0547V24.5938C52.0547 25.5547 51.7266 26.3516 51.0469 27.0312C50.3672 27.7109 49.5703 28.0625 48.6094 28.0625H46.0781V37.5547C46.0781 38.5156 45.75 39.3125 45.0703 39.9922C44.3906 40.6719 43.5938 41 42.6328 41H41.1094V8.14062ZM62.0344 33.0312C62.0344 33.8516 62.3391 34.5547 62.925 35.1406C63.5109 35.7266 64.2141 36.0312 65.0344 36.0312C65.8547 36.0312 66.5578 35.7266 67.1438 35.1406C67.7297 34.5547 68.0109 33.8516 68.0109 33.0312V16.1094C68.0109 15.2891 67.7297 14.5859 67.1438 14C66.5578 13.4141 65.8547 13.1094 65.0344 13.1094C64.2141 13.1094 63.5109 13.4141 62.925 14C62.3391 14.5859 62.0344 15.2891 62.0344 16.1094V33.0312ZM57.0656 16.1094C57.0656 13.9062 57.8391 12.0312 59.3859 10.4609C60.9563 8.91406 62.8313 8.14062 65.0344 8.14062C67.2375 8.14062 69.1125 8.91406 70.6594 10.4609C72.2297 12.0312 73.0031 13.9062 73.0031 16.1094V33.0312C73.0031 35.2344 72.2297 37.1094 70.6594 38.6797C69.1125 40.2266 67.2375 41 65.0344 41C62.8547 41 60.9797 40.2266 59.4094 38.6797C57.8391 37.1094 57.0656 35.2344 57.0656 33.0312V16.1094ZM80.9906 33.0312C80.9906 33.8516 81.2953 34.5547 81.8812 35.1406C82.4672 35.7266 83.1703 36.0312 83.9906 36.0312C84.8109 36.0312 85.5141 35.7266 86.1 35.1406C86.6859 34.5547 86.9672 33.8516 86.9672 33.0312V16.1094C86.9672 15.2891 86.6859 14.5859 86.1 14C85.5141 13.4141 84.8109 13.1094 83.9906 13.1094C83.1703 13.1094 82.4672 13.4141 81.8812 14C81.2953 14.5859 80.9906 15.2891 80.9906 16.1094V33.0312ZM76.0219 16.1094C76.0219 13.9062 76.7953 12.0312 78.3422 10.4609C79.9125 8.91406 81.7875 8.14062 83.9906 8.14062C86.1937 8.14062 88.0687 8.91406 89.6156 10.4609C91.1859 12.0312 91.9594 13.9062 91.9594 16.1094V33.0312C91.9594 35.2344 91.1859 37.1094 89.6156 38.6797C88.0687 40.2266 86.1937 41 83.9906 41C81.8109 41 79.9359 40.2266 78.3656 38.6797C76.7953 37.1094 76.0219 35.2344 76.0219 33.0312V16.1094ZM102.947 36.0312C103.767 36.0312 104.47 35.7266 105.056 35.1406C105.642 34.5547 105.923 33.8516 105.923 33.0312V16.1094C105.923 15.2891 105.642 14.5859 105.08 14C104.494 13.4141 103.791 13.1094 102.947 13.1094H99.9469V36.0312H102.947ZM102.947 8.14062C105.173 8.14062 107.072 8.91406 108.619 10.4609C110.189 12.0312 110.963 13.9062 110.963 16.1094V33.0312C110.963 35.2344 110.166 37.1094 108.595 38.6797C107.025 40.2266 105.15 41 102.947 41H94.9781V8.14062H102.947Z" fill="#F17228"/>
<path d="M141.164 8.14062V41H139.641C138.68 41 137.883 40.6719 137.203 39.9922C136.523 39.3125 136.195 38.5156 136.195 37.5547V18.8516L131.484 41H126.07L121.078 18.8047V37.5547C121.078 38.5156 120.75 39.3125 120.07 39.9922C119.391 40.6719 118.594 41 117.633 41H116.109V8.14062H119.109C120.094 8.14062 120.984 8.44531 121.758 9.03125C122.531 9.64062 123.047 10.4375 123.305 11.4219L128.742 33.2656L133.898 11.4688C134.156 10.4609 134.672 9.66406 135.445 9.05469C136.219 8.44531 137.086 8.14062 138.094 8.14062H141.164ZM149.415 33.0312C149.415 33.8516 149.72 34.5547 150.306 35.1406C150.892 35.7266 151.595 36.0312 152.415 36.0312C153.235 36.0312 153.938 35.7266 154.524 35.1406C155.11 34.5547 155.392 33.8516 155.392 33.0312V16.1094C155.392 15.2891 155.11 14.5859 154.524 14C153.938 13.4141 153.235 13.1094 152.415 13.1094C151.595 13.1094 150.892 13.4141 150.306 14C149.72 14.5859 149.415 15.2891 149.415 16.1094V33.0312ZM144.446 16.1094C144.446 13.9062 145.22 12.0312 146.767 10.4609C148.337 8.91406 150.212 8.14062 152.415 8.14062C154.618 8.14062 156.493 8.91406 158.04 10.4609C159.61 12.0312 160.384 13.9062 160.384 16.1094V33.0312C160.384 35.2344 159.61 37.1094 158.04 38.6797C156.493 40.2266 154.618 41 152.415 41C150.235 41 148.36 40.2266 146.79 38.6797C145.22 37.1094 144.446 35.2344 144.446 33.0312V16.1094ZM168.611 33.0312C168.611 33.8516 168.916 34.5547 169.502 35.1406C170.088 35.7266 170.791 36.0312 171.611 36.0312C172.432 36.0312 173.135 35.7266 173.721 35.1406C174.307 34.5547 174.588 33.8516 174.588 33.0312V16.1094C174.588 15.2891 174.307 14.5859 173.721 14C173.135 13.4141 172.432 13.1094 171.611 13.1094C170.791 13.1094 170.088 13.4141 169.502 14C168.916 14.5859 168.611 15.2891 168.611 16.1094V33.0312ZM163.643 16.1094C163.643 13.9062 164.416 12.0312 165.963 10.4609C167.533 8.91406 169.408 8.14062 171.611 8.14062C173.814 8.14062 175.689 8.91406 177.236 10.4609C178.807 12.0312 179.58 13.9062 179.58 16.1094V33.0312C179.58 35.2344 178.807 37.1094 177.236 38.6797C175.689 40.2266 173.814 41 171.611 41C169.432 41 167.557 40.2266 165.986 38.6797C164.416 37.1094 163.643 35.2344 163.643 33.0312V16.1094ZM190.808 36.0312C191.628 36.0312 192.331 35.7266 192.917 35.1406C193.503 34.5547 193.784 33.8516 193.784 33.0312V16.1094C193.784 15.2891 193.503 14.5859 192.94 14C192.354 13.4141 191.651 13.1094 190.808 13.1094H187.808V36.0312H190.808ZM190.808 8.14062C193.034 8.14062 194.933 8.91406 196.479 10.4609C198.05 12.0312 198.823 13.9062 198.823 16.1094V33.0312C198.823 35.2344 198.026 37.1094 196.456 38.6797C194.886 40.2266 193.011 41 190.808 41H182.839V8.14062H190.808Z" fill="#FFB30E"/>
<defs>
<linearGradient id="paint0_linear_12001_12" x1="15" y1="9.49983" x2="15" y2="26.9998" gradientUnits="userSpaceOnUse">
<stop stop-color="#FFD16D"/>
<stop offset="1" stop-color="#FF7A00"/>
</linearGradient>
</defs>
</svg>
