<svg width="194" height="34" viewBox="0 0 194 34" fill="none" xmlns="http://www.w3.org/2000/svg">
<mask id="mask0_12001_55" style="mask-type:alpha" maskUnits="userSpaceOnUse" x="0" y="2" width="28" height="30">
<path d="M8.89415 28.3647C8.89415 30.366 7.27184 31.9883 5.27062 31.9883C3.2694 31.9883 1.64709 30.366 1.64709 28.3647C1.64709 26.3635 3.2694 24.7412 5.27062 24.7412C7.27184 24.7412 8.89415 26.3635 8.89415 28.3647Z" fill="#C4C4C4"/>
<path d="M26.3531 28.3647C26.3531 30.366 24.7308 31.9883 22.7296 31.9883C20.7284 31.9883 19.1061 30.366 19.1061 28.3647C19.1061 26.3635 20.7284 24.7412 22.7296 24.7412C24.7308 24.7412 26.3531 26.3635 26.3531 28.3647Z" fill="#C4C4C4"/>
<path fill-rule="evenodd" clip-rule="evenodd" d="M25.1913 25.7058C25.4382 25.9345 25.4094 26.3209 25.1508 26.5363C23.7802 27.6779 22.0174 28.3647 20.0941 28.3647H19.7649C19.401 28.3647 19.0998 28.0671 19.1652 27.7091C19.4737 26.0209 20.9522 24.7412 22.7296 24.7412C23.68 24.7412 24.545 25.1071 25.1913 25.7058ZM27.0987 24.1282C26.8986 24.5093 26.3844 24.543 26.0504 24.2717C25.144 23.5354 23.9883 23.0942 22.7296 23.0942C20.0414 23.0942 17.8233 25.1066 17.4996 27.7072C17.4547 28.0682 17.164 28.3647 16.8002 28.3647H11.2C10.8361 28.3647 10.5455 28.0682 10.5006 27.7072C10.1769 25.1066 7.95876 23.0942 5.27059 23.0942C4.0118 23.0942 2.85608 23.5354 1.94969 24.2718C1.61563 24.5431 1.10145 24.5094 0.901402 24.1283C0.325709 23.0317 0 21.7833 0 20.4588V18.8116C0 18.4478 0.294965 18.1528 0.658823 18.1528H27.3412C27.705 18.1528 28 18.4478 28 18.8116V20.4588C28 21.7832 27.6743 23.0316 27.0987 24.1282ZM28 15.8469C28 16.2108 27.705 16.5057 27.3412 16.5057H0.658824C0.294965 16.5057 0 16.2108 0 15.8469V11.894C0 11.5302 0.294965 11.2352 0.658823 11.2352H27.3412C27.705 11.2352 28 11.5302 28 11.894V15.8469ZM7.90588 2.01172C3.883 2.01172 0.561907 5.0164 0.0643695 8.904C0.0168356 9.27541 0.318678 9.58814 0.693122 9.58814H27.3069C27.6813 9.58814 27.9832 9.27541 27.9356 8.904C27.4381 5.0164 24.117 2.01172 20.0941 2.01172H7.90588ZM5.27059 24.7412C7.04795 24.7412 8.52644 26.0209 8.83496 27.7091C8.90037 28.0671 8.59914 28.3647 8.23528 28.3647H7.90588C5.98268 28.3647 4.21987 27.6779 2.84928 26.5364C2.59074 26.321 2.56193 25.9345 2.80878 25.7059C3.45509 25.1072 4.3201 24.7412 5.27059 24.7412Z" fill="#C4C4C4"/>
</mask>
<g mask="url(#mask0_12001_55)">
<rect x="-1.64709" y="-0.294189" width="33.6" height="10.8706" fill="url(#paint0_linear_12001_55)"/>
<rect x="-1.64709" y="17.4941" width="33.6" height="16.4706" fill="#FFA833"/>
<rect x="-1.64709" y="10.5764" width="33.6" height="7.24706" rx="3.62353" fill="#F17228"/>
<rect x="-23.0587" y="24.7412" width="31.9529" height="7.24706" fill="#F58D00"/>
<rect x="19.1061" y="24.7412" width="31.9529" height="7.24706" fill="#F58D00"/>
<ellipse cx="8.11249" cy="4.82316" rx="1" ry="0.5" transform="rotate(-20.8548 8.11249 4.82316)" fill="white"/>
<ellipse cx="14" cy="4.5" rx="1" ry="0.5" fill="white"/>
<ellipse cx="19.1176" cy="4.91225" rx="1" ry="0.5" transform="rotate(28.1155 19.1176 4.91225)" fill="white"/>
</g>
<path d="M100.837 28.4609C101.658 28.4609 102.361 28.1562 102.947 27.5703C103.533 26.9844 103.814 26.2812 103.814 25.4609V8.53906C103.814 7.71875 103.533 7.01562 102.97 6.42969C102.384 5.84375 101.681 5.53906 100.837 5.53906H97.8375V28.4609H100.837ZM100.837 0.570312C103.064 0.570312 104.962 1.34375 106.509 2.89062C108.08 4.46094 108.853 6.33594 108.853 8.53906V25.4609C108.853 27.6641 108.056 29.5391 106.486 31.1094C104.916 32.6562 103.041 33.4297 100.837 33.4297H92.8687V0.570312H100.837Z" fill="#F17228"/>
<path d="M78.8813 25.4609C78.8813 26.2812 79.1859 26.9844 79.7719 27.5703C80.3578 28.1562 81.0609 28.4609 81.8813 28.4609C82.7016 28.4609 83.4047 28.1562 83.9906 27.5703C84.5766 26.9844 84.8578 26.2812 84.8578 25.4609V8.53906C84.8578 7.71875 84.5766 7.01562 83.9906 6.42969C83.4047 5.84375 82.7016 5.53906 81.8813 5.53906C81.0609 5.53906 80.3578 5.84375 79.7719 6.42969C79.1859 7.01562 78.8813 7.71875 78.8813 8.53906V25.4609ZM73.9125 8.53906C73.9125 6.33594 74.6859 4.46094 76.2328 2.89062C77.8031 1.34375 79.6781 0.570312 81.8813 0.570312C84.0844 0.570312 85.9594 1.34375 87.5063 2.89062C89.0766 4.46094 89.85 6.33594 89.85 8.53906V25.4609C89.85 27.6641 89.0766 29.5391 87.5063 31.1094C85.9594 32.6562 84.0844 33.4297 81.8813 33.4297C79.7016 33.4297 77.8266 32.6562 76.2563 31.1094C74.6859 29.5391 73.9125 27.6641 73.9125 25.4609V8.53906Z" fill="#F17228"/>
<path d="M59.925 25.4609C59.925 26.2812 60.2297 26.9844 60.8156 27.5703C61.4016 28.1562 62.1047 28.4609 62.925 28.4609C63.7453 28.4609 64.4484 28.1562 65.0344 27.5703C65.6203 26.9844 65.9016 26.2812 65.9016 25.4609V8.53906C65.9016 7.71875 65.6203 7.01562 65.0344 6.42969C64.4484 5.84375 63.7453 5.53906 62.925 5.53906C62.1047 5.53906 61.4016 5.84375 60.8156 6.42969C60.2297 7.01562 59.925 7.71875 59.925 8.53906V25.4609ZM54.9562 8.53906C54.9562 6.33594 55.7297 4.46094 57.2766 2.89062C58.8469 1.34375 60.7219 0.570312 62.925 0.570312C65.1281 0.570312 67.0031 1.34375 68.55 2.89062C70.1203 4.46094 70.8937 6.33594 70.8937 8.53906V25.4609C70.8937 27.6641 70.1203 29.5391 68.55 31.1094C67.0031 32.6562 65.1281 33.4297 62.925 33.4297C60.7453 33.4297 58.8703 32.6562 57.3 31.1094C55.7297 29.5391 54.9562 27.6641 54.9562 25.4609V8.53906Z" fill="#F17228"/>
<path d="M39 0.570312H51.9375V2.09375C51.9375 3.05469 51.6094 3.85156 50.9297 4.53125C50.25 5.21094 49.4531 5.53906 48.4922 5.53906H43.9688V15.5H49.9453V17.0234C49.9453 17.9844 49.6172 18.7812 48.9375 19.4609C48.2578 20.1406 47.4609 20.4922 46.5 20.4922H43.9688V29.9844C43.9688 30.9453 43.6406 31.7422 42.9609 32.4219C42.2812 33.1016 41.4844 33.4297 40.5234 33.4297H39V0.570312Z" fill="#F17228"/>
<path d="M185.551 28.4609C186.372 28.4609 187.075 28.1562 187.661 27.5703C188.247 26.9844 188.528 26.2812 188.528 25.4609V8.53906C188.528 7.71875 188.247 7.01562 187.684 6.42969C187.098 5.84375 186.395 5.53906 185.551 5.53906H182.551V28.4609H185.551ZM185.551 0.570312C187.778 0.570312 189.676 1.34375 191.223 2.89062C192.793 4.46094 193.567 6.33594 193.567 8.53906V25.4609C193.567 27.6641 192.77 29.5391 191.2 31.1094C189.629 32.6562 187.754 33.4297 185.551 33.4297H177.582V0.570312H185.551Z" fill="#FFB30E"/>
<path d="M163.355 25.4609C163.355 26.2812 163.66 26.9844 164.246 27.5703C164.832 28.1562 165.535 28.4609 166.355 28.4609C167.175 28.4609 167.878 28.1562 168.464 27.5703C169.05 26.9844 169.332 26.2812 169.332 25.4609V8.53906C169.332 7.71875 169.05 7.01562 168.464 6.42969C167.878 5.84375 167.175 5.53906 166.355 5.53906C165.535 5.53906 164.832 5.84375 164.246 6.42969C163.66 7.01562 163.355 7.71875 163.355 8.53906V25.4609ZM158.386 8.53906C158.386 6.33594 159.16 4.46094 160.707 2.89062C162.277 1.34375 164.152 0.570312 166.355 0.570312C168.558 0.570312 170.433 1.34375 171.98 2.89062C173.55 4.46094 174.324 6.33594 174.324 8.53906V25.4609C174.324 27.6641 173.55 29.5391 171.98 31.1094C170.433 32.6562 168.558 33.4297 166.355 33.4297C164.175 33.4297 162.3 32.6562 160.73 31.1094C159.16 29.5391 158.386 27.6641 158.386 25.4609V8.53906Z" fill="#FFB30E"/>
<path d="M144.159 25.4609C144.159 26.2812 144.463 26.9844 145.049 27.5703C145.635 28.1562 146.338 28.4609 147.159 28.4609C147.979 28.4609 148.682 28.1562 149.268 27.5703C149.854 26.9844 150.135 26.2812 150.135 25.4609V8.53906C150.135 7.71875 149.854 7.01562 149.268 6.42969C148.682 5.84375 147.979 5.53906 147.159 5.53906C146.338 5.53906 145.635 5.84375 145.049 6.42969C144.463 7.01562 144.159 7.71875 144.159 8.53906V25.4609ZM139.19 8.53906C139.19 6.33594 139.963 4.46094 141.51 2.89062C143.081 1.34375 144.956 0.570312 147.159 0.570312C149.362 0.570312 151.237 1.34375 152.784 2.89062C154.354 4.46094 155.128 6.33594 155.128 8.53906V25.4609C155.128 27.6641 154.354 29.5391 152.784 31.1094C151.237 32.6562 149.362 33.4297 147.159 33.4297C144.979 33.4297 143.104 32.6562 141.534 31.1094C139.963 29.5391 139.19 27.6641 139.19 25.4609V8.53906Z" fill="#FFB30E"/>
<path d="M135.908 0.570312V33.4297H134.384C133.423 33.4297 132.627 33.1016 131.947 32.4219C131.267 31.7422 130.939 30.9453 130.939 29.9844V11.2812L126.228 33.4297H120.814L115.822 11.2344V29.9844C115.822 30.9453 115.494 31.7422 114.814 32.4219C114.134 33.1016 113.337 33.4297 112.377 33.4297H110.853V0.570312H113.853C114.837 0.570312 115.728 0.875 116.502 1.46094C117.275 2.07031 117.791 2.86719 118.048 3.85156L123.486 25.6953L128.642 3.89844C128.9 2.89062 129.416 2.09375 130.189 1.48438C130.962 0.875 131.83 0.570312 132.837 0.570312H135.908Z" fill="#FFB30E"/>
<defs>
<linearGradient id="paint0_linear_12001_55" x1="15" y1="1.49976" x2="15" y2="18.9998" gradientUnits="userSpaceOnUse">
<stop stop-color="#FFD16D"/>
<stop offset="1" stop-color="#FF7A00"/>
</linearGradient>
</defs>
</svg>
